# xmcd
#
# Track frame offsets: 
#        150
#        19015
#        39438
#        60038
#        83370
#        105955
#        124325
#        140818
#        158520
#        181813
#        200495
#        212525
#        228878
#        247613
#        262403
#        282930
#
# Disc length: 4020 seconds
#
# Revision: 1
# Processed by: cddbd v1.5.2PL0 Copyright (c) Steve Scherf et al.
# Submitted via: ExactAudioCopyFreeDBPlugin 1.0
#
DISCID=c60fb210
DTITLE=巫启贤 - 我感觉不到你
DYEAR=1997
DGENRE=Blues
TTITLE0=路弯弯
TTITLE1=我感觉不到你
TTITLE2=答应我好好的过
TTITLE3=原点
TTITLE4=FLY AWAY
TTITLE5=面对
TTITLE6=要求
TTITLE7=一样害怕
TTITLE8=让我把你看清楚
TTITLE9=慢慢习惯
TTITLE10=慢慢习惯(FINALE)
TTITLE11=风中有你
TTITLE12=思念谁
TTITLE13=心不死
TTITLE14=从未改变
TTITLE15=心酸的情歌
EXTD=
EXTT0=
EXTT1=
EXTT2=
EXTT3=
EXTT4=
EXTT5=
EXTT6=
EXTT7=
EXTT8=
EXTT9=
EXTT10=
EXTT11=
EXTT12=
EXTT13=
EXTT14=
EXTT15=
PLAYORDER=
